<mxfile host="app.diagrams.net" modified="2024-09-20T03:29:55.683Z" agent="Mozilla/5.0 (Windows NT 10.0; Win64; x64) AppleWebKit/537.36 (KHTML, like Gecko) Chrome/115.0.0.0 Safari/537.36" etag="UIQQ8uXPWhRK7PKSHSX9" version="24.1.0" type="github" pages="4">
  <diagram name="Trang-1" id="KtHr_5E2wknJm8B1uxdO">
    <mxGraphModel grid="1" page="1" gridSize="10" guides="1" tooltips="1" connect="1" arrows="1" fold="1" pageScale="1" pageWidth="1169" pageHeight="827" math="0" shadow="0">
      <root>
        <mxCell id="0" />
        <mxCell id="1" parent="0" />
        <mxCell id="ma864Qg47mfF3DVLuMsx-1" value="Tầng 2" style="rounded=1;whiteSpace=wrap;html=1;verticalAlign=top;fontStyle=1;fillColor=#f5f5f5;fontColor=#333333;strokeColor=#666666;" vertex="1" parent="1">
          <mxGeometry x="220" y="80" width="600" height="250" as="geometry" />
        </mxCell>
        <mxCell id="ma864Qg47mfF3DVLuMsx-21" value="" style="rounded=1;whiteSpace=wrap;html=1;fontColor=default;labelBackgroundColor=none;fillColor=none;dashed=1;" vertex="1" parent="1">
          <mxGeometry x="250" y="110" width="130" height="200" as="geometry" />
        </mxCell>
        <mxCell id="ma864Qg47mfF3DVLuMsx-23" value="" style="rounded=1;whiteSpace=wrap;html=1;fontColor=default;labelBackgroundColor=none;fillColor=none;dashed=1;" vertex="1" parent="1">
          <mxGeometry x="620" y="110" width="160" height="200" as="geometry" />
        </mxCell>
        <mxCell id="ma864Qg47mfF3DVLuMsx-22" value="" style="rounded=1;whiteSpace=wrap;html=1;fontColor=default;labelBackgroundColor=none;fillColor=none;dashed=1;" vertex="1" parent="1">
          <mxGeometry x="430" y="110" width="150" height="200" as="geometry" />
        </mxCell>
        <mxCell id="ma864Qg47mfF3DVLuMsx-4" value="K8S Master" style="ellipse;whiteSpace=wrap;html=1;fillColor=#dae8fc;strokeColor=#6c8ebf;gradientColor=#7ea6e0;" vertex="1" parent="1">
          <mxGeometry x="265" y="130" width="100" height="40" as="geometry" />
        </mxCell>
        <mxCell id="ma864Qg47mfF3DVLuMsx-13" value="MongoDB&lt;span style=&quot;background-color: initial;&quot;&gt;&amp;nbsp;1&lt;/span&gt;" style="rounded=1;whiteSpace=wrap;html=1;fillColor=#d5e8d4;strokeColor=#82b366;gradientColor=#97d077;" vertex="1" parent="1">
          <mxGeometry x="450" y="130" width="110" height="30" as="geometry" />
        </mxCell>
        <mxCell id="ma864Qg47mfF3DVLuMsx-17" value="vManager" style="shape=hexagon;perimeter=hexagonPerimeter2;whiteSpace=wrap;html=1;fixedSize=1;fillColor=#e6d0de;strokeColor=#996185;gradientColor=#d5739d;" vertex="1" parent="1">
          <mxGeometry x="645" y="150" width="110" height="30" as="geometry" />
        </mxCell>
        <mxCell id="ma864Qg47mfF3DVLuMsx-24" value="Mô hình site ACTIVE" style="text;html=1;align=center;verticalAlign=middle;resizable=0;points=[];autosize=1;strokeColor=none;fillColor=none;fontFamily=Helvetica;fontSize=13;fontColor=default;labelBackgroundColor=default;fontStyle=1" vertex="1" parent="1">
          <mxGeometry x="450" y="40" width="140" height="30" as="geometry" />
        </mxCell>
        <mxCell id="zmJjWXUQZirm-v3zcHut-1" value="K8S Master" style="ellipse;whiteSpace=wrap;html=1;fillColor=#dae8fc;strokeColor=#6c8ebf;gradientColor=#7ea6e0;" vertex="1" parent="1">
          <mxGeometry x="265" y="185" width="100" height="40" as="geometry" />
        </mxCell>
        <mxCell id="zmJjWXUQZirm-v3zcHut-2" value="K8S Master" style="ellipse;whiteSpace=wrap;html=1;fillColor=#dae8fc;strokeColor=#6c8ebf;gradientColor=#7ea6e0;" vertex="1" parent="1">
          <mxGeometry x="265" y="240" width="100" height="40" as="geometry" />
        </mxCell>
        <mxCell id="zmJjWXUQZirm-v3zcHut-4" value="MongoDB&lt;span style=&quot;background-color: initial;&quot;&gt;&amp;nbsp;2&lt;/span&gt;" style="rounded=1;whiteSpace=wrap;html=1;fillColor=#d5e8d4;strokeColor=#82b366;gradientColor=#97d077;" vertex="1" parent="1">
          <mxGeometry x="450" y="180" width="110" height="30" as="geometry" />
        </mxCell>
        <mxCell id="zmJjWXUQZirm-v3zcHut-5" value="MongoDB&lt;span style=&quot;background-color: initial;&quot;&gt;&amp;nbsp;3&lt;/span&gt;" style="rounded=1;whiteSpace=wrap;html=1;fillColor=#d5e8d4;strokeColor=#82b366;gradientColor=#97d077;" vertex="1" parent="1">
          <mxGeometry x="450" y="225" width="110" height="30" as="geometry" />
        </mxCell>
        <mxCell id="zmJjWXUQZirm-v3zcHut-6" value="MongoDB Arbiter" style="rounded=1;whiteSpace=wrap;html=1;fillColor=#fff2cc;strokeColor=#d6b656;gradientColor=#ffd966;" vertex="1" parent="1">
          <mxGeometry x="450" y="270" width="110" height="30" as="geometry" />
        </mxCell>
        <mxCell id="zmJjWXUQZirm-v3zcHut-7" style="edgeStyle=none;rounded=0;orthogonalLoop=1;jettySize=auto;html=1;exitX=0.5;exitY=1;exitDx=0;exitDy=0;dashed=1;dashPattern=1 3;strokeColor=default;strokeWidth=2;align=center;verticalAlign=middle;fontFamily=Helvetica;fontSize=11;fontColor=default;labelBackgroundColor=default;endArrow=none;" edge="1" parent="1" source="zmJjWXUQZirm-v3zcHut-4" target="zmJjWXUQZirm-v3zcHut-4">
          <mxGeometry relative="1" as="geometry" />
        </mxCell>
        <mxCell id="zmJjWXUQZirm-v3zcHut-8" value="vManager" style="shape=hexagon;perimeter=hexagonPerimeter2;whiteSpace=wrap;html=1;fixedSize=1;fillColor=#e6d0de;strokeColor=#996185;gradientColor=#d5739d;" vertex="1" parent="1">
          <mxGeometry x="645" y="200" width="110" height="30" as="geometry" />
        </mxCell>
        <mxCell id="zmJjWXUQZirm-v3zcHut-9" value="vManager" style="shape=hexagon;perimeter=hexagonPerimeter2;whiteSpace=wrap;html=1;fixedSize=1;fillColor=#e6d0de;strokeColor=#996185;gradientColor=#d5739d;" vertex="1" parent="1">
          <mxGeometry x="645" y="250" width="110" height="30" as="geometry" />
        </mxCell>
        <mxCell id="zmJjWXUQZirm-v3zcHut-11" value="Tầng 1" style="rounded=1;whiteSpace=wrap;html=1;verticalAlign=top;fontStyle=1;fillColor=#f5f5f5;fontColor=#333333;strokeColor=#666666;" vertex="1" parent="1">
          <mxGeometry x="220" y="380" width="600" height="250" as="geometry" />
        </mxCell>
        <mxCell id="zmJjWXUQZirm-v3zcHut-12" value="" style="rounded=1;whiteSpace=wrap;html=1;fontColor=default;labelBackgroundColor=none;fillColor=none;dashed=1;" vertex="1" parent="1">
          <mxGeometry x="250" y="410" width="130" height="200" as="geometry" />
        </mxCell>
        <mxCell id="zmJjWXUQZirm-v3zcHut-13" value="" style="rounded=1;whiteSpace=wrap;html=1;fontColor=default;labelBackgroundColor=none;fillColor=none;dashed=1;" vertex="1" parent="1">
          <mxGeometry x="620" y="410" width="160" height="200" as="geometry" />
        </mxCell>
        <mxCell id="zmJjWXUQZirm-v3zcHut-14" value="" style="rounded=1;whiteSpace=wrap;html=1;fontColor=default;labelBackgroundColor=none;fillColor=none;dashed=1;" vertex="1" parent="1">
          <mxGeometry x="430" y="410" width="150" height="200" as="geometry" />
        </mxCell>
        <mxCell id="zmJjWXUQZirm-v3zcHut-15" value="K8S Master" style="ellipse;whiteSpace=wrap;html=1;fillColor=#dae8fc;strokeColor=#6c8ebf;gradientColor=#7ea6e0;" vertex="1" parent="1">
          <mxGeometry x="265" y="430" width="100" height="40" as="geometry" />
        </mxCell>
        <mxCell id="zmJjWXUQZirm-v3zcHut-16" value="MongoDB&lt;span style=&quot;background-color: initial;&quot;&gt;&amp;nbsp;1&lt;/span&gt;" style="rounded=1;whiteSpace=wrap;html=1;fillColor=#d5e8d4;strokeColor=#82b366;gradientColor=#97d077;" vertex="1" parent="1">
          <mxGeometry x="450" y="430" width="110" height="30" as="geometry" />
        </mxCell>
        <mxCell id="zmJjWXUQZirm-v3zcHut-17" value="vManager" style="shape=hexagon;perimeter=hexagonPerimeter2;whiteSpace=wrap;html=1;fixedSize=1;fillColor=#e6d0de;strokeColor=#996185;gradientColor=#d5739d;" vertex="1" parent="1">
          <mxGeometry x="645" y="450" width="110" height="30" as="geometry" />
        </mxCell>
        <mxCell id="zmJjWXUQZirm-v3zcHut-18" value="K8S Master" style="ellipse;whiteSpace=wrap;html=1;fillColor=#dae8fc;strokeColor=#6c8ebf;gradientColor=#7ea6e0;" vertex="1" parent="1">
          <mxGeometry x="265" y="485" width="100" height="40" as="geometry" />
        </mxCell>
        <mxCell id="zmJjWXUQZirm-v3zcHut-19" value="K8S Master" style="ellipse;whiteSpace=wrap;html=1;fillColor=#dae8fc;strokeColor=#6c8ebf;gradientColor=#7ea6e0;" vertex="1" parent="1">
          <mxGeometry x="265" y="540" width="100" height="40" as="geometry" />
        </mxCell>
        <mxCell id="zmJjWXUQZirm-v3zcHut-20" value="MongoDB&lt;span style=&quot;background-color: initial;&quot;&gt;&amp;nbsp;2&lt;/span&gt;" style="rounded=1;whiteSpace=wrap;html=1;fillColor=#d5e8d4;strokeColor=#82b366;gradientColor=#97d077;" vertex="1" parent="1">
          <mxGeometry x="450" y="480" width="110" height="30" as="geometry" />
        </mxCell>
        <mxCell id="zmJjWXUQZirm-v3zcHut-21" value="MongoDB&lt;span style=&quot;background-color: initial;&quot;&gt;&amp;nbsp;3&lt;/span&gt;" style="rounded=1;whiteSpace=wrap;html=1;fillColor=#d5e8d4;strokeColor=#82b366;gradientColor=#97d077;" vertex="1" parent="1">
          <mxGeometry x="450" y="525" width="110" height="30" as="geometry" />
        </mxCell>
        <mxCell id="zmJjWXUQZirm-v3zcHut-23" style="edgeStyle=none;rounded=0;orthogonalLoop=1;jettySize=auto;html=1;exitX=0.5;exitY=1;exitDx=0;exitDy=0;dashed=1;dashPattern=1 3;strokeColor=default;strokeWidth=2;align=center;verticalAlign=middle;fontFamily=Helvetica;fontSize=11;fontColor=default;labelBackgroundColor=default;endArrow=none;" edge="1" parent="1" source="zmJjWXUQZirm-v3zcHut-20" target="zmJjWXUQZirm-v3zcHut-20">
          <mxGeometry relative="1" as="geometry" />
        </mxCell>
        <mxCell id="zmJjWXUQZirm-v3zcHut-24" value="vManager" style="shape=hexagon;perimeter=hexagonPerimeter2;whiteSpace=wrap;html=1;fixedSize=1;fillColor=#e6d0de;strokeColor=#996185;gradientColor=#d5739d;" vertex="1" parent="1">
          <mxGeometry x="645" y="500" width="110" height="30" as="geometry" />
        </mxCell>
        <mxCell id="zmJjWXUQZirm-v3zcHut-25" value="vManager" style="shape=hexagon;perimeter=hexagonPerimeter2;whiteSpace=wrap;html=1;fixedSize=1;fillColor=#e6d0de;strokeColor=#996185;gradientColor=#d5739d;" vertex="1" parent="1">
          <mxGeometry x="645" y="550" width="110" height="30" as="geometry" />
        </mxCell>
        <mxCell id="3J2ckhnY79NE3MNcvAs7-1" value="" style="endArrow=none;html=1;strokeWidth=2;rounded=0;" edge="1" parent="1">
          <mxGeometry width="50" height="50" relative="1" as="geometry">
            <mxPoint x="240" y="360" as="sourcePoint" />
            <mxPoint x="790" y="360" as="targetPoint" />
          </mxGeometry>
        </mxCell>
      </root>
    </mxGraphModel>
  </diagram>
  <diagram id="xYCxfRL7xnQJrOIaZe5V" name="Trang-2">
    <mxGraphModel dx="1434" dy="790" grid="1" gridSize="10" guides="1" tooltips="1" connect="1" arrows="1" fold="1" page="1" pageScale="1" pageWidth="1169" pageHeight="827" math="0" shadow="0">
      <root>
        <mxCell id="0" />
        <mxCell id="1" parent="0" />
        <mxCell id="rp5EIZEETMFY2fjiBXBT-2" value="Tầng 2" style="rounded=1;whiteSpace=wrap;html=1;verticalAlign=top;fontStyle=1" vertex="1" parent="1">
          <mxGeometry x="220" y="100" width="500" height="230" as="geometry" />
        </mxCell>
        <mxCell id="rp5EIZEETMFY2fjiBXBT-6" value="" style="endArrow=none;html=1;strokeWidth=2;rounded=0;" edge="1" parent="1">
          <mxGeometry width="50" height="50" relative="1" as="geometry">
            <mxPoint x="180" y="360" as="sourcePoint" />
            <mxPoint x="760" y="360" as="targetPoint" />
          </mxGeometry>
        </mxCell>
        <mxCell id="rp5EIZEETMFY2fjiBXBT-7" value="K8S Master" style="ellipse;whiteSpace=wrap;html=1;fillColor=#dae8fc;gradientColor=#7ea6e0;strokeColor=#6c8ebf;" vertex="1" parent="1">
          <mxGeometry x="260" y="130" width="100" height="40" as="geometry" />
        </mxCell>
        <mxCell id="rp5EIZEETMFY2fjiBXBT-18" value="Mô hình vị trí đặt server trên mỗi site" style="text;html=1;align=center;verticalAlign=middle;resizable=0;points=[];autosize=1;strokeColor=none;fillColor=none;fontFamily=Helvetica;fontSize=13;fontColor=default;labelBackgroundColor=default;fontStyle=1" vertex="1" parent="1">
          <mxGeometry x="335" y="50" width="230" height="30" as="geometry" />
        </mxCell>
        <mxCell id="rp5EIZEETMFY2fjiBXBT-23" value="K8S Worker" style="rounded=1;whiteSpace=wrap;html=1;fillColor=#e6d0de;gradientColor=#d5739d;strokeColor=#996185;" vertex="1" parent="1">
          <mxGeometry x="560" y="130" width="100" height="40" as="geometry" />
        </mxCell>
        <mxCell id="rp5EIZEETMFY2fjiBXBT-24" value="K8S Worker" style="rounded=1;whiteSpace=wrap;html=1;fillColor=#e6d0de;gradientColor=#d5739d;strokeColor=#996185;" vertex="1" parent="1">
          <mxGeometry x="560" y="195" width="100" height="40" as="geometry" />
        </mxCell>
        <mxCell id="rp5EIZEETMFY2fjiBXBT-26" value="K8S Worker" style="rounded=1;whiteSpace=wrap;html=1;fillColor=#e6d0de;gradientColor=#d5739d;strokeColor=#996185;" vertex="1" parent="1">
          <mxGeometry x="560" y="260" width="100" height="40" as="geometry" />
        </mxCell>
        <mxCell id="BrkPCkeNBMGpwD7rTDN7-1" value="K8S Master" style="ellipse;whiteSpace=wrap;html=1;fillColor=#dae8fc;gradientColor=#7ea6e0;strokeColor=#6c8ebf;" vertex="1" parent="1">
          <mxGeometry x="260" y="195" width="100" height="40" as="geometry" />
        </mxCell>
        <mxCell id="BrkPCkeNBMGpwD7rTDN7-2" value="K8S Master" style="ellipse;whiteSpace=wrap;html=1;fillColor=#dae8fc;gradientColor=#7ea6e0;strokeColor=#6c8ebf;" vertex="1" parent="1">
          <mxGeometry x="260" y="260" width="100" height="40" as="geometry" />
        </mxCell>
        <mxCell id="BrkPCkeNBMGpwD7rTDN7-19" value="K8S Worker" style="rounded=1;whiteSpace=wrap;html=1;fillColor=#e6d0de;gradientColor=#d5739d;strokeColor=#996185;" vertex="1" parent="1">
          <mxGeometry x="410" y="130" width="100" height="40" as="geometry" />
        </mxCell>
        <mxCell id="BrkPCkeNBMGpwD7rTDN7-20" value="K8S Worker" style="rounded=1;whiteSpace=wrap;html=1;fillColor=#e6d0de;gradientColor=#d5739d;strokeColor=#996185;" vertex="1" parent="1">
          <mxGeometry x="410" y="195" width="100" height="40" as="geometry" />
        </mxCell>
        <mxCell id="BrkPCkeNBMGpwD7rTDN7-21" value="K8S Worker" style="rounded=1;whiteSpace=wrap;html=1;fillColor=#e6d0de;gradientColor=#d5739d;strokeColor=#996185;" vertex="1" parent="1">
          <mxGeometry x="410" y="260" width="100" height="40" as="geometry" />
        </mxCell>
        <mxCell id="BrkPCkeNBMGpwD7rTDN7-22" value="Tầng 1" style="rounded=1;whiteSpace=wrap;html=1;verticalAlign=top;fontStyle=1" vertex="1" parent="1">
          <mxGeometry x="220" y="390" width="500" height="230" as="geometry" />
        </mxCell>
        <mxCell id="BrkPCkeNBMGpwD7rTDN7-23" value="K8S Master" style="ellipse;whiteSpace=wrap;html=1;fillColor=#dae8fc;gradientColor=#7ea6e0;strokeColor=#6c8ebf;" vertex="1" parent="1">
          <mxGeometry x="260" y="420" width="100" height="40" as="geometry" />
        </mxCell>
        <mxCell id="BrkPCkeNBMGpwD7rTDN7-24" value="K8S Worker" style="rounded=1;whiteSpace=wrap;html=1;fillColor=#e6d0de;gradientColor=#d5739d;strokeColor=#996185;" vertex="1" parent="1">
          <mxGeometry x="560" y="420" width="100" height="40" as="geometry" />
        </mxCell>
        <mxCell id="BrkPCkeNBMGpwD7rTDN7-25" value="K8S Worker" style="rounded=1;whiteSpace=wrap;html=1;fillColor=#e6d0de;gradientColor=#d5739d;strokeColor=#996185;" vertex="1" parent="1">
          <mxGeometry x="560" y="485" width="100" height="40" as="geometry" />
        </mxCell>
        <mxCell id="BrkPCkeNBMGpwD7rTDN7-26" value="K8S Worker" style="rounded=1;whiteSpace=wrap;html=1;fillColor=#e6d0de;gradientColor=#d5739d;strokeColor=#996185;" vertex="1" parent="1">
          <mxGeometry x="560" y="550" width="100" height="40" as="geometry" />
        </mxCell>
        <mxCell id="BrkPCkeNBMGpwD7rTDN7-27" value="K8S Master" style="ellipse;whiteSpace=wrap;html=1;fillColor=#dae8fc;gradientColor=#7ea6e0;strokeColor=#6c8ebf;" vertex="1" parent="1">
          <mxGeometry x="260" y="485" width="100" height="40" as="geometry" />
        </mxCell>
        <mxCell id="BrkPCkeNBMGpwD7rTDN7-28" value="K8S Master" style="ellipse;whiteSpace=wrap;html=1;fillColor=#dae8fc;gradientColor=#7ea6e0;strokeColor=#6c8ebf;" vertex="1" parent="1">
          <mxGeometry x="260" y="550" width="100" height="40" as="geometry" />
        </mxCell>
        <mxCell id="BrkPCkeNBMGpwD7rTDN7-29" value="K8S Worker" style="rounded=1;whiteSpace=wrap;html=1;fillColor=#e6d0de;gradientColor=#d5739d;strokeColor=#996185;" vertex="1" parent="1">
          <mxGeometry x="410" y="420" width="100" height="40" as="geometry" />
        </mxCell>
        <mxCell id="BrkPCkeNBMGpwD7rTDN7-30" value="K8S Worker" style="rounded=1;whiteSpace=wrap;html=1;fillColor=#e6d0de;gradientColor=#d5739d;strokeColor=#996185;" vertex="1" parent="1">
          <mxGeometry x="410" y="485" width="100" height="40" as="geometry" />
        </mxCell>
        <mxCell id="BrkPCkeNBMGpwD7rTDN7-31" value="K8S Worker" style="rounded=1;whiteSpace=wrap;html=1;fillColor=#e6d0de;gradientColor=#d5739d;strokeColor=#996185;" vertex="1" parent="1">
          <mxGeometry x="410" y="550" width="100" height="40" as="geometry" />
        </mxCell>
      </root>
    </mxGraphModel>
  </diagram>
  <diagram id="EwoE1b5ANXQdhcUTxe4h" name="Trang-3">
    <mxGraphModel dx="1687" dy="929" grid="1" gridSize="10" guides="1" tooltips="1" connect="1" arrows="1" fold="1" page="1" pageScale="1" pageWidth="1169" pageHeight="827" math="0" shadow="0">
      <root>
        <mxCell id="0" />
        <mxCell id="1" parent="0" />
        <mxCell id="Vd_j5hjKasok9uUHp-Vp-1" value="Tầng 2" style="rounded=1;whiteSpace=wrap;html=1;verticalAlign=top;fontStyle=1;fillColor=#f5f5f5;fontColor=#333333;strokeColor=#666666;" vertex="1" parent="1">
          <mxGeometry x="20" y="80" width="600" height="250" as="geometry" />
        </mxCell>
        <mxCell id="Vd_j5hjKasok9uUHp-Vp-2" value="" style="rounded=1;whiteSpace=wrap;html=1;fontColor=default;labelBackgroundColor=none;fillColor=none;dashed=1;" vertex="1" parent="1">
          <mxGeometry x="50" y="110" width="130" height="200" as="geometry" />
        </mxCell>
        <mxCell id="Vd_j5hjKasok9uUHp-Vp-3" value="" style="rounded=1;whiteSpace=wrap;html=1;fontColor=default;labelBackgroundColor=none;fillColor=none;dashed=1;" vertex="1" parent="1">
          <mxGeometry x="420" y="110" width="160" height="200" as="geometry" />
        </mxCell>
        <mxCell id="Vd_j5hjKasok9uUHp-Vp-4" value="" style="rounded=1;whiteSpace=wrap;html=1;fontColor=default;labelBackgroundColor=none;fillColor=none;dashed=1;" vertex="1" parent="1">
          <mxGeometry x="230" y="110" width="150" height="200" as="geometry" />
        </mxCell>
        <mxCell id="Vd_j5hjKasok9uUHp-Vp-5" value="K8S Master" style="ellipse;whiteSpace=wrap;html=1;fillColor=#dae8fc;strokeColor=#6c8ebf;gradientColor=#7ea6e0;" vertex="1" parent="1">
          <mxGeometry x="65" y="130" width="100" height="40" as="geometry" />
        </mxCell>
        <mxCell id="Vd_j5hjKasok9uUHp-Vp-6" value="MongoDB&lt;span style=&quot;background-color: initial;&quot;&gt;&amp;nbsp;1&lt;/span&gt;" style="rounded=1;whiteSpace=wrap;html=1;fillColor=#d5e8d4;strokeColor=#82b366;gradientColor=#97d077;" vertex="1" parent="1">
          <mxGeometry x="250" y="130" width="110" height="30" as="geometry" />
        </mxCell>
        <mxCell id="Vd_j5hjKasok9uUHp-Vp-7" value="vManager" style="shape=hexagon;perimeter=hexagonPerimeter2;whiteSpace=wrap;html=1;fixedSize=1;fillColor=#e6d0de;strokeColor=#996185;gradientColor=#d5739d;" vertex="1" parent="1">
          <mxGeometry x="445" y="150" width="110" height="30" as="geometry" />
        </mxCell>
        <mxCell id="Vd_j5hjKasok9uUHp-Vp-8" value="Mô hình site ACTIVE" style="text;html=1;align=center;verticalAlign=middle;resizable=0;points=[];autosize=1;strokeColor=none;fillColor=none;fontFamily=Helvetica;fontSize=13;fontColor=default;labelBackgroundColor=default;fontStyle=1" vertex="1" parent="1">
          <mxGeometry x="250" y="40" width="140" height="30" as="geometry" />
        </mxCell>
        <mxCell id="Vd_j5hjKasok9uUHp-Vp-9" value="K8S Master" style="ellipse;whiteSpace=wrap;html=1;fillColor=#dae8fc;strokeColor=#6c8ebf;gradientColor=#7ea6e0;" vertex="1" parent="1">
          <mxGeometry x="65" y="185" width="100" height="40" as="geometry" />
        </mxCell>
        <mxCell id="Vd_j5hjKasok9uUHp-Vp-10" value="K8S Master" style="ellipse;whiteSpace=wrap;html=1;fillColor=#dae8fc;strokeColor=#6c8ebf;gradientColor=#7ea6e0;" vertex="1" parent="1">
          <mxGeometry x="65" y="240" width="100" height="40" as="geometry" />
        </mxCell>
        <mxCell id="Vd_j5hjKasok9uUHp-Vp-11" value="MongoDB&lt;span style=&quot;background-color: initial;&quot;&gt;&amp;nbsp;2&lt;/span&gt;" style="rounded=1;whiteSpace=wrap;html=1;fillColor=#d5e8d4;strokeColor=#82b366;gradientColor=#97d077;" vertex="1" parent="1">
          <mxGeometry x="250" y="180" width="110" height="30" as="geometry" />
        </mxCell>
        <mxCell id="Vd_j5hjKasok9uUHp-Vp-12" value="MongoDB&lt;span style=&quot;background-color: initial;&quot;&gt;&amp;nbsp;3&lt;/span&gt;" style="rounded=1;whiteSpace=wrap;html=1;fillColor=#d5e8d4;strokeColor=#82b366;gradientColor=#97d077;" vertex="1" parent="1">
          <mxGeometry x="250" y="225" width="110" height="30" as="geometry" />
        </mxCell>
        <mxCell id="Vd_j5hjKasok9uUHp-Vp-13" value="MongoDB Arbiter" style="rounded=1;whiteSpace=wrap;html=1;fillColor=#fff2cc;strokeColor=#d6b656;gradientColor=#ffd966;" vertex="1" parent="1">
          <mxGeometry x="250" y="270" width="110" height="30" as="geometry" />
        </mxCell>
        <mxCell id="Vd_j5hjKasok9uUHp-Vp-14" style="edgeStyle=none;rounded=0;orthogonalLoop=1;jettySize=auto;html=1;exitX=0.5;exitY=1;exitDx=0;exitDy=0;dashed=1;dashPattern=1 3;strokeColor=default;strokeWidth=2;align=center;verticalAlign=middle;fontFamily=Helvetica;fontSize=11;fontColor=default;labelBackgroundColor=default;endArrow=none;" edge="1" parent="1" source="Vd_j5hjKasok9uUHp-Vp-11" target="Vd_j5hjKasok9uUHp-Vp-11">
          <mxGeometry relative="1" as="geometry" />
        </mxCell>
        <mxCell id="Vd_j5hjKasok9uUHp-Vp-15" value="vManager" style="shape=hexagon;perimeter=hexagonPerimeter2;whiteSpace=wrap;html=1;fixedSize=1;fillColor=#e6d0de;strokeColor=#996185;gradientColor=#d5739d;" vertex="1" parent="1">
          <mxGeometry x="445" y="200" width="110" height="30" as="geometry" />
        </mxCell>
        <mxCell id="Vd_j5hjKasok9uUHp-Vp-16" value="vManager" style="shape=hexagon;perimeter=hexagonPerimeter2;whiteSpace=wrap;html=1;fixedSize=1;fillColor=#e6d0de;strokeColor=#996185;gradientColor=#d5739d;" vertex="1" parent="1">
          <mxGeometry x="445" y="250" width="110" height="30" as="geometry" />
        </mxCell>
        <mxCell id="Vd_j5hjKasok9uUHp-Vp-17" value="Tầng 1" style="rounded=1;whiteSpace=wrap;html=1;verticalAlign=top;fontStyle=1;fillColor=#f5f5f5;fontColor=#333333;strokeColor=#666666;" vertex="1" parent="1">
          <mxGeometry x="20" y="380" width="600" height="250" as="geometry" />
        </mxCell>
        <mxCell id="Vd_j5hjKasok9uUHp-Vp-18" value="" style="rounded=1;whiteSpace=wrap;html=1;fontColor=default;labelBackgroundColor=none;fillColor=none;dashed=1;" vertex="1" parent="1">
          <mxGeometry x="50" y="410" width="130" height="200" as="geometry" />
        </mxCell>
        <mxCell id="Vd_j5hjKasok9uUHp-Vp-19" value="" style="rounded=1;whiteSpace=wrap;html=1;fontColor=default;labelBackgroundColor=none;fillColor=none;dashed=1;" vertex="1" parent="1">
          <mxGeometry x="420" y="410" width="160" height="200" as="geometry" />
        </mxCell>
        <mxCell id="Vd_j5hjKasok9uUHp-Vp-20" value="" style="rounded=1;whiteSpace=wrap;html=1;fontColor=default;labelBackgroundColor=none;fillColor=none;dashed=1;" vertex="1" parent="1">
          <mxGeometry x="230" y="410" width="150" height="200" as="geometry" />
        </mxCell>
        <mxCell id="Vd_j5hjKasok9uUHp-Vp-21" value="K8S Master" style="ellipse;whiteSpace=wrap;html=1;fillColor=#dae8fc;strokeColor=#6c8ebf;gradientColor=#7ea6e0;" vertex="1" parent="1">
          <mxGeometry x="65" y="430" width="100" height="40" as="geometry" />
        </mxCell>
        <mxCell id="Vd_j5hjKasok9uUHp-Vp-22" value="MongoDB&lt;span style=&quot;background-color: initial;&quot;&gt;&amp;nbsp;1&lt;/span&gt;" style="rounded=1;whiteSpace=wrap;html=1;fillColor=#d5e8d4;strokeColor=#82b366;gradientColor=#97d077;" vertex="1" parent="1">
          <mxGeometry x="250" y="430" width="110" height="30" as="geometry" />
        </mxCell>
        <mxCell id="Vd_j5hjKasok9uUHp-Vp-23" value="vManager" style="shape=hexagon;perimeter=hexagonPerimeter2;whiteSpace=wrap;html=1;fixedSize=1;fillColor=#e6d0de;strokeColor=#996185;gradientColor=#d5739d;" vertex="1" parent="1">
          <mxGeometry x="445" y="450" width="110" height="30" as="geometry" />
        </mxCell>
        <mxCell id="Vd_j5hjKasok9uUHp-Vp-24" value="K8S Master" style="ellipse;whiteSpace=wrap;html=1;fillColor=#dae8fc;strokeColor=#6c8ebf;gradientColor=#7ea6e0;" vertex="1" parent="1">
          <mxGeometry x="65" y="485" width="100" height="40" as="geometry" />
        </mxCell>
        <mxCell id="Vd_j5hjKasok9uUHp-Vp-25" value="K8S Master" style="ellipse;whiteSpace=wrap;html=1;fillColor=#dae8fc;strokeColor=#6c8ebf;gradientColor=#7ea6e0;" vertex="1" parent="1">
          <mxGeometry x="65" y="540" width="100" height="40" as="geometry" />
        </mxCell>
        <mxCell id="Vd_j5hjKasok9uUHp-Vp-26" value="MongoDB&lt;span style=&quot;background-color: initial;&quot;&gt;&amp;nbsp;2&lt;/span&gt;" style="rounded=1;whiteSpace=wrap;html=1;fillColor=#d5e8d4;strokeColor=#82b366;gradientColor=#97d077;" vertex="1" parent="1">
          <mxGeometry x="250" y="480" width="110" height="30" as="geometry" />
        </mxCell>
        <mxCell id="Vd_j5hjKasok9uUHp-Vp-27" value="MongoDB&lt;span style=&quot;background-color: initial;&quot;&gt;&amp;nbsp;3&lt;/span&gt;" style="rounded=1;whiteSpace=wrap;html=1;fillColor=#d5e8d4;strokeColor=#82b366;gradientColor=#97d077;" vertex="1" parent="1">
          <mxGeometry x="250" y="525" width="110" height="30" as="geometry" />
        </mxCell>
        <mxCell id="Vd_j5hjKasok9uUHp-Vp-28" style="edgeStyle=none;rounded=0;orthogonalLoop=1;jettySize=auto;html=1;exitX=0.5;exitY=1;exitDx=0;exitDy=0;dashed=1;dashPattern=1 3;strokeColor=default;strokeWidth=2;align=center;verticalAlign=middle;fontFamily=Helvetica;fontSize=11;fontColor=default;labelBackgroundColor=default;endArrow=none;" edge="1" parent="1" source="Vd_j5hjKasok9uUHp-Vp-26" target="Vd_j5hjKasok9uUHp-Vp-26">
          <mxGeometry relative="1" as="geometry" />
        </mxCell>
        <mxCell id="Vd_j5hjKasok9uUHp-Vp-29" value="vManager" style="shape=hexagon;perimeter=hexagonPerimeter2;whiteSpace=wrap;html=1;fixedSize=1;fillColor=#e6d0de;strokeColor=#996185;gradientColor=#d5739d;" vertex="1" parent="1">
          <mxGeometry x="445" y="500" width="110" height="30" as="geometry" />
        </mxCell>
        <mxCell id="Vd_j5hjKasok9uUHp-Vp-30" value="vManager" style="shape=hexagon;perimeter=hexagonPerimeter2;whiteSpace=wrap;html=1;fixedSize=1;fillColor=#e6d0de;strokeColor=#996185;gradientColor=#d5739d;" vertex="1" parent="1">
          <mxGeometry x="445" y="550" width="110" height="30" as="geometry" />
        </mxCell>
        <mxCell id="Vd_j5hjKasok9uUHp-Vp-31" value="" style="endArrow=none;html=1;strokeWidth=2;rounded=0;" edge="1" parent="1">
          <mxGeometry width="50" height="50" relative="1" as="geometry">
            <mxPoint x="40" y="360" as="sourcePoint" />
            <mxPoint x="590" y="360" as="targetPoint" />
          </mxGeometry>
        </mxCell>
        <mxCell id="Vd_j5hjKasok9uUHp-Vp-32" value="Tầng 2" style="rounded=1;whiteSpace=wrap;html=1;verticalAlign=top;fontStyle=1;fillColor=#f5f5f5;fontColor=#333333;strokeColor=#666666;" vertex="1" parent="1">
          <mxGeometry x="700" y="80" width="600" height="250" as="geometry" />
        </mxCell>
        <mxCell id="Vd_j5hjKasok9uUHp-Vp-33" value="" style="rounded=1;whiteSpace=wrap;html=1;fontColor=default;labelBackgroundColor=none;fillColor=none;dashed=1;" vertex="1" parent="1">
          <mxGeometry x="730" y="110" width="130" height="200" as="geometry" />
        </mxCell>
        <mxCell id="Vd_j5hjKasok9uUHp-Vp-34" value="" style="rounded=1;whiteSpace=wrap;html=1;fontColor=default;labelBackgroundColor=none;fillColor=none;dashed=1;" vertex="1" parent="1">
          <mxGeometry x="1100" y="110" width="160" height="200" as="geometry" />
        </mxCell>
        <mxCell id="Vd_j5hjKasok9uUHp-Vp-35" value="" style="rounded=1;whiteSpace=wrap;html=1;fontColor=default;labelBackgroundColor=none;fillColor=none;dashed=1;" vertex="1" parent="1">
          <mxGeometry x="910" y="110" width="150" height="200" as="geometry" />
        </mxCell>
        <mxCell id="Vd_j5hjKasok9uUHp-Vp-36" value="K8S Master" style="ellipse;whiteSpace=wrap;html=1;fillColor=#dae8fc;strokeColor=#6c8ebf;gradientColor=#7ea6e0;" vertex="1" parent="1">
          <mxGeometry x="745" y="130" width="100" height="40" as="geometry" />
        </mxCell>
        <mxCell id="Vd_j5hjKasok9uUHp-Vp-37" value="MongoDB&lt;span style=&quot;background-color: initial;&quot;&gt;&amp;nbsp;1&lt;/span&gt;" style="rounded=1;whiteSpace=wrap;html=1;fillColor=#d5e8d4;strokeColor=#82b366;gradientColor=#97d077;" vertex="1" parent="1">
          <mxGeometry x="930" y="130" width="110" height="30" as="geometry" />
        </mxCell>
        <mxCell id="Vd_j5hjKasok9uUHp-Vp-38" value="vManager" style="shape=hexagon;perimeter=hexagonPerimeter2;whiteSpace=wrap;html=1;fixedSize=1;fillColor=#e6d0de;strokeColor=#996185;gradientColor=#d5739d;" vertex="1" parent="1">
          <mxGeometry x="1125" y="150" width="110" height="30" as="geometry" />
        </mxCell>
        <mxCell id="Vd_j5hjKasok9uUHp-Vp-39" value="Mô hình site STANDBY" style="text;html=1;align=center;verticalAlign=middle;resizable=0;points=[];autosize=1;strokeColor=none;fillColor=none;fontFamily=Helvetica;fontSize=13;fontColor=default;labelBackgroundColor=default;fontStyle=1" vertex="1" parent="1">
          <mxGeometry x="920" y="40" width="160" height="30" as="geometry" />
        </mxCell>
        <mxCell id="Vd_j5hjKasok9uUHp-Vp-40" value="K8S Master" style="ellipse;whiteSpace=wrap;html=1;fillColor=#dae8fc;strokeColor=#6c8ebf;gradientColor=#7ea6e0;" vertex="1" parent="1">
          <mxGeometry x="745" y="185" width="100" height="40" as="geometry" />
        </mxCell>
        <mxCell id="Vd_j5hjKasok9uUHp-Vp-41" value="K8S Master" style="ellipse;whiteSpace=wrap;html=1;fillColor=#dae8fc;strokeColor=#6c8ebf;gradientColor=#7ea6e0;" vertex="1" parent="1">
          <mxGeometry x="745" y="240" width="100" height="40" as="geometry" />
        </mxCell>
        <mxCell id="Vd_j5hjKasok9uUHp-Vp-42" value="MongoDB&lt;span style=&quot;background-color: initial;&quot;&gt;&amp;nbsp;2&lt;/span&gt;" style="rounded=1;whiteSpace=wrap;html=1;fillColor=#d5e8d4;strokeColor=#82b366;gradientColor=#97d077;" vertex="1" parent="1">
          <mxGeometry x="930" y="180" width="110" height="30" as="geometry" />
        </mxCell>
        <mxCell id="Vd_j5hjKasok9uUHp-Vp-43" value="MongoDB&lt;span style=&quot;background-color: initial;&quot;&gt;&amp;nbsp;3&lt;/span&gt;" style="rounded=1;whiteSpace=wrap;html=1;fillColor=#d5e8d4;strokeColor=#82b366;gradientColor=#97d077;" vertex="1" parent="1">
          <mxGeometry x="930" y="225" width="110" height="30" as="geometry" />
        </mxCell>
        <mxCell id="Vd_j5hjKasok9uUHp-Vp-45" style="edgeStyle=none;rounded=0;orthogonalLoop=1;jettySize=auto;html=1;exitX=0.5;exitY=1;exitDx=0;exitDy=0;dashed=1;dashPattern=1 3;strokeColor=default;strokeWidth=2;align=center;verticalAlign=middle;fontFamily=Helvetica;fontSize=11;fontColor=default;labelBackgroundColor=default;endArrow=none;" edge="1" parent="1" source="Vd_j5hjKasok9uUHp-Vp-42" target="Vd_j5hjKasok9uUHp-Vp-42">
          <mxGeometry relative="1" as="geometry" />
        </mxCell>
        <mxCell id="Vd_j5hjKasok9uUHp-Vp-46" value="vManager" style="shape=hexagon;perimeter=hexagonPerimeter2;whiteSpace=wrap;html=1;fixedSize=1;fillColor=#e6d0de;strokeColor=#996185;gradientColor=#d5739d;" vertex="1" parent="1">
          <mxGeometry x="1125" y="200" width="110" height="30" as="geometry" />
        </mxCell>
        <mxCell id="Vd_j5hjKasok9uUHp-Vp-47" value="vManager" style="shape=hexagon;perimeter=hexagonPerimeter2;whiteSpace=wrap;html=1;fixedSize=1;fillColor=#e6d0de;strokeColor=#996185;gradientColor=#d5739d;" vertex="1" parent="1">
          <mxGeometry x="1125" y="250" width="110" height="30" as="geometry" />
        </mxCell>
        <mxCell id="Vd_j5hjKasok9uUHp-Vp-48" value="Tầng 1" style="rounded=1;whiteSpace=wrap;html=1;verticalAlign=top;fontStyle=1;fillColor=#f5f5f5;fontColor=#333333;strokeColor=#666666;" vertex="1" parent="1">
          <mxGeometry x="700" y="380" width="600" height="250" as="geometry" />
        </mxCell>
        <mxCell id="Vd_j5hjKasok9uUHp-Vp-49" value="" style="rounded=1;whiteSpace=wrap;html=1;fontColor=default;labelBackgroundColor=none;fillColor=none;dashed=1;" vertex="1" parent="1">
          <mxGeometry x="730" y="410" width="130" height="200" as="geometry" />
        </mxCell>
        <mxCell id="Vd_j5hjKasok9uUHp-Vp-50" value="" style="rounded=1;whiteSpace=wrap;html=1;fontColor=default;labelBackgroundColor=none;fillColor=none;dashed=1;" vertex="1" parent="1">
          <mxGeometry x="1100" y="410" width="160" height="200" as="geometry" />
        </mxCell>
        <mxCell id="Vd_j5hjKasok9uUHp-Vp-51" value="" style="rounded=1;whiteSpace=wrap;html=1;fontColor=default;labelBackgroundColor=none;fillColor=none;dashed=1;" vertex="1" parent="1">
          <mxGeometry x="910" y="410" width="150" height="200" as="geometry" />
        </mxCell>
        <mxCell id="Vd_j5hjKasok9uUHp-Vp-52" value="K8S Master" style="ellipse;whiteSpace=wrap;html=1;fillColor=#dae8fc;strokeColor=#6c8ebf;gradientColor=#7ea6e0;" vertex="1" parent="1">
          <mxGeometry x="745" y="430" width="100" height="40" as="geometry" />
        </mxCell>
        <mxCell id="Vd_j5hjKasok9uUHp-Vp-53" value="MongoDB&lt;span style=&quot;background-color: initial;&quot;&gt;&amp;nbsp;1&lt;/span&gt;" style="rounded=1;whiteSpace=wrap;html=1;fillColor=#d5e8d4;strokeColor=#82b366;gradientColor=#97d077;" vertex="1" parent="1">
          <mxGeometry x="930" y="430" width="110" height="30" as="geometry" />
        </mxCell>
        <mxCell id="Vd_j5hjKasok9uUHp-Vp-54" value="vManager" style="shape=hexagon;perimeter=hexagonPerimeter2;whiteSpace=wrap;html=1;fixedSize=1;fillColor=#e6d0de;strokeColor=#996185;gradientColor=#d5739d;" vertex="1" parent="1">
          <mxGeometry x="1125" y="450" width="110" height="30" as="geometry" />
        </mxCell>
        <mxCell id="Vd_j5hjKasok9uUHp-Vp-55" value="K8S Master" style="ellipse;whiteSpace=wrap;html=1;fillColor=#dae8fc;strokeColor=#6c8ebf;gradientColor=#7ea6e0;" vertex="1" parent="1">
          <mxGeometry x="745" y="485" width="100" height="40" as="geometry" />
        </mxCell>
        <mxCell id="Vd_j5hjKasok9uUHp-Vp-56" value="K8S Master" style="ellipse;whiteSpace=wrap;html=1;fillColor=#dae8fc;strokeColor=#6c8ebf;gradientColor=#7ea6e0;" vertex="1" parent="1">
          <mxGeometry x="745" y="540" width="100" height="40" as="geometry" />
        </mxCell>
        <mxCell id="Vd_j5hjKasok9uUHp-Vp-57" value="MongoDB&lt;span style=&quot;background-color: initial;&quot;&gt;&amp;nbsp;2&lt;/span&gt;" style="rounded=1;whiteSpace=wrap;html=1;fillColor=#d5e8d4;strokeColor=#82b366;gradientColor=#97d077;" vertex="1" parent="1">
          <mxGeometry x="930" y="480" width="110" height="30" as="geometry" />
        </mxCell>
        <mxCell id="Vd_j5hjKasok9uUHp-Vp-58" value="MongoDB&lt;span style=&quot;background-color: initial;&quot;&gt;&amp;nbsp;3&lt;/span&gt;" style="rounded=1;whiteSpace=wrap;html=1;fillColor=#d5e8d4;strokeColor=#82b366;gradientColor=#97d077;" vertex="1" parent="1">
          <mxGeometry x="930" y="525" width="110" height="30" as="geometry" />
        </mxCell>
        <mxCell id="Vd_j5hjKasok9uUHp-Vp-59" style="edgeStyle=none;rounded=0;orthogonalLoop=1;jettySize=auto;html=1;exitX=0.5;exitY=1;exitDx=0;exitDy=0;dashed=1;dashPattern=1 3;strokeColor=default;strokeWidth=2;align=center;verticalAlign=middle;fontFamily=Helvetica;fontSize=11;fontColor=default;labelBackgroundColor=default;endArrow=none;" edge="1" parent="1" source="Vd_j5hjKasok9uUHp-Vp-57" target="Vd_j5hjKasok9uUHp-Vp-57">
          <mxGeometry relative="1" as="geometry" />
        </mxCell>
        <mxCell id="Vd_j5hjKasok9uUHp-Vp-60" value="vManager" style="shape=hexagon;perimeter=hexagonPerimeter2;whiteSpace=wrap;html=1;fixedSize=1;fillColor=#e6d0de;strokeColor=#996185;gradientColor=#d5739d;" vertex="1" parent="1">
          <mxGeometry x="1125" y="500" width="110" height="30" as="geometry" />
        </mxCell>
        <mxCell id="Vd_j5hjKasok9uUHp-Vp-61" value="vManager" style="shape=hexagon;perimeter=hexagonPerimeter2;whiteSpace=wrap;html=1;fixedSize=1;fillColor=#e6d0de;strokeColor=#996185;gradientColor=#d5739d;" vertex="1" parent="1">
          <mxGeometry x="1125" y="550" width="110" height="30" as="geometry" />
        </mxCell>
        <mxCell id="Vd_j5hjKasok9uUHp-Vp-62" value="" style="endArrow=none;html=1;strokeWidth=2;rounded=0;" edge="1" parent="1">
          <mxGeometry width="50" height="50" relative="1" as="geometry">
            <mxPoint x="720" y="360" as="sourcePoint" />
            <mxPoint x="1270" y="360" as="targetPoint" />
          </mxGeometry>
        </mxCell>
        <mxCell id="Vd_j5hjKasok9uUHp-Vp-63" value="" style="endArrow=none;html=1;strokeWidth=2;rounded=0;strokeColor=#FF0000;" edge="1" parent="1">
          <mxGeometry width="50" height="50" relative="1" as="geometry">
            <mxPoint x="660" y="630" as="sourcePoint" />
            <mxPoint x="660" y="80" as="targetPoint" />
          </mxGeometry>
        </mxCell>
      </root>
    </mxGraphModel>
  </diagram>
  <diagram id="EZEv0qCXLUZ2Yf6D6sga" name="Trang-4">
    <mxGraphModel dx="2049" dy="1129" grid="1" gridSize="10" guides="1" tooltips="1" connect="1" arrows="1" fold="1" page="1" pageScale="1" pageWidth="1169" pageHeight="827" math="0" shadow="0">
      <root>
        <mxCell id="0" />
        <mxCell id="1" parent="0" />
        <mxCell id="9NSYeFcuyXZWmgVy-g_J-1" value="Tầng 2" style="rounded=1;whiteSpace=wrap;html=1;verticalAlign=top;fontStyle=1;fillColor=#f5f5f5;fontColor=#333333;strokeColor=#666666;" vertex="1" parent="1">
          <mxGeometry x="40" y="390" width="600" height="230" as="geometry" />
        </mxCell>
        <mxCell id="9NSYeFcuyXZWmgVy-g_J-2" value="Tầng 1" style="rounded=1;whiteSpace=wrap;html=1;verticalAlign=top;fontStyle=1;fillColor=#f5f5f5;fontColor=#333333;strokeColor=#666666;" vertex="1" parent="1">
          <mxGeometry x="40" y="80" width="600" height="250" as="geometry" />
        </mxCell>
        <mxCell id="9NSYeFcuyXZWmgVy-g_J-3" value="" style="rounded=1;whiteSpace=wrap;html=1;fontColor=default;labelBackgroundColor=none;fillColor=none;dashed=1;" vertex="1" parent="1">
          <mxGeometry x="70" y="110" width="130" height="490" as="geometry" />
        </mxCell>
        <mxCell id="9NSYeFcuyXZWmgVy-g_J-4" value="" style="rounded=1;whiteSpace=wrap;html=1;fontColor=default;labelBackgroundColor=none;fillColor=none;dashed=1;" vertex="1" parent="1">
          <mxGeometry x="440" y="140" width="160" height="460" as="geometry" />
        </mxCell>
        <mxCell id="9NSYeFcuyXZWmgVy-g_J-5" value="" style="rounded=1;whiteSpace=wrap;html=1;fontColor=default;labelBackgroundColor=none;fillColor=none;dashed=1;" vertex="1" parent="1">
          <mxGeometry x="240" y="110" width="160" height="490" as="geometry" />
        </mxCell>
        <mxCell id="9NSYeFcuyXZWmgVy-g_J-6" value="" style="endArrow=none;html=1;strokeWidth=2;rounded=0;" edge="1" parent="1">
          <mxGeometry width="50" height="50" relative="1" as="geometry">
            <mxPoint x="50" y="360" as="sourcePoint" />
            <mxPoint x="630" y="360" as="targetPoint" />
          </mxGeometry>
        </mxCell>
        <mxCell id="9NSYeFcuyXZWmgVy-g_J-7" value="K8S Master" style="ellipse;whiteSpace=wrap;html=1;fillColor=#dae8fc;strokeColor=#6c8ebf;gradientColor=#7ea6e0;" vertex="1" parent="1">
          <mxGeometry x="80" y="150" width="110" height="60" as="geometry" />
        </mxCell>
        <mxCell id="9NSYeFcuyXZWmgVy-g_J-8" value="K8S Master" style="ellipse;whiteSpace=wrap;html=1;fillColor=#dae8fc;strokeColor=#6c8ebf;gradientColor=#7ea6e0;" vertex="1" parent="1">
          <mxGeometry x="80" y="240" width="110" height="60" as="geometry" />
        </mxCell>
        <mxCell id="9NSYeFcuyXZWmgVy-g_J-9" value="K8S Master" style="ellipse;whiteSpace=wrap;html=1;fillColor=#dae8fc;strokeColor=#6c8ebf;gradientColor=#7ea6e0;" vertex="1" parent="1">
          <mxGeometry x="80" y="470" width="110" height="60" as="geometry" />
        </mxCell>
        <mxCell id="9NSYeFcuyXZWmgVy-g_J-10" value="MongoDB&lt;span style=&quot;background-color: initial;&quot;&gt;&amp;nbsp;3&lt;/span&gt;" style="rounded=1;whiteSpace=wrap;html=1;fillColor=#d5e8d4;strokeColor=#82b366;gradientColor=#97d077;" vertex="1" parent="1">
          <mxGeometry x="260" y="430" width="120" height="40" as="geometry" />
        </mxCell>
        <mxCell id="9NSYeFcuyXZWmgVy-g_J-11" value="MongoDB&lt;span style=&quot;background-color: initial;&quot;&gt;&amp;nbsp;4&lt;/span&gt;" style="rounded=1;whiteSpace=wrap;html=1;fillColor=#d5e8d4;strokeColor=#82b366;gradientColor=#97d077;" vertex="1" parent="1">
          <mxGeometry x="260" y="485" width="120" height="40" as="geometry" />
        </mxCell>
        <mxCell id="9NSYeFcuyXZWmgVy-g_J-12" value="MongoDB&lt;span style=&quot;background-color: initial;&quot;&gt;&amp;nbsp;1&lt;/span&gt;" style="rounded=1;whiteSpace=wrap;html=1;fillColor=#d5e8d4;strokeColor=#82b366;gradientColor=#97d077;" vertex="1" parent="1">
          <mxGeometry x="260" y="160" width="120" height="40" as="geometry" />
        </mxCell>
        <mxCell id="9NSYeFcuyXZWmgVy-g_J-13" value="MongoDB&lt;span style=&quot;background-color: initial;&quot;&gt;&amp;nbsp;2&lt;/span&gt;" style="rounded=1;whiteSpace=wrap;html=1;fillColor=#d5e8d4;strokeColor=#82b366;gradientColor=#97d077;" vertex="1" parent="1">
          <mxGeometry x="260" y="240" width="120" height="40" as="geometry" />
        </mxCell>
        <mxCell id="9NSYeFcuyXZWmgVy-g_J-14" value="MongoDB&lt;div&gt;Arbiter&lt;/div&gt;" style="rounded=1;whiteSpace=wrap;html=1;fillColor=#fff2cc;strokeColor=#d6b656;gradientColor=#ffd966;" vertex="1" parent="1">
          <mxGeometry x="260" y="540" width="120" height="40" as="geometry" />
        </mxCell>
        <mxCell id="9NSYeFcuyXZWmgVy-g_J-15" value="vManager" style="shape=hexagon;perimeter=hexagonPerimeter2;whiteSpace=wrap;html=1;fixedSize=1;fillColor=#e6d0de;strokeColor=#996185;gradientColor=#d5739d;" vertex="1" parent="1">
          <mxGeometry x="460" y="160" width="120" height="40" as="geometry" />
        </mxCell>
        <mxCell id="9NSYeFcuyXZWmgVy-g_J-16" value="vManager" style="shape=hexagon;perimeter=hexagonPerimeter2;whiteSpace=wrap;html=1;fixedSize=1;fillColor=#e6d0de;strokeColor=#996185;gradientColor=#d5739d;" vertex="1" parent="1">
          <mxGeometry x="460" y="460" width="120" height="40" as="geometry" />
        </mxCell>
        <mxCell id="9NSYeFcuyXZWmgVy-g_J-17" value="vManager" style="shape=hexagon;perimeter=hexagonPerimeter2;whiteSpace=wrap;html=1;fixedSize=1;fillColor=#e6d0de;strokeColor=#996185;gradientColor=#d5739d;" vertex="1" parent="1">
          <mxGeometry x="460" y="540" width="120" height="40" as="geometry" />
        </mxCell>
        <mxCell id="9NSYeFcuyXZWmgVy-g_J-18" value="Mô hình site ACTIVE" style="text;html=1;align=center;verticalAlign=middle;resizable=0;points=[];autosize=1;strokeColor=none;fillColor=none;fontFamily=Helvetica;fontSize=13;fontColor=default;labelBackgroundColor=default;fontStyle=1" vertex="1" parent="1">
          <mxGeometry x="270" y="40" width="140" height="30" as="geometry" />
        </mxCell>
        <mxCell id="9NSYeFcuyXZWmgVy-g_J-19" value="Tầng 2" style="rounded=1;whiteSpace=wrap;html=1;verticalAlign=top;fontStyle=1;fillColor=#f5f5f5;fontColor=#333333;strokeColor=#666666;" vertex="1" parent="1">
          <mxGeometry x="720" y="390" width="600" height="230" as="geometry" />
        </mxCell>
        <mxCell id="9NSYeFcuyXZWmgVy-g_J-20" value="Tầng 1" style="rounded=1;whiteSpace=wrap;html=1;verticalAlign=top;fontStyle=1;fillColor=#f5f5f5;fontColor=#333333;strokeColor=#666666;" vertex="1" parent="1">
          <mxGeometry x="720" y="80" width="600" height="250" as="geometry" />
        </mxCell>
        <mxCell id="9NSYeFcuyXZWmgVy-g_J-21" value="" style="rounded=1;whiteSpace=wrap;html=1;fontColor=default;labelBackgroundColor=none;fillColor=none;dashed=1;" vertex="1" parent="1">
          <mxGeometry x="750" y="110" width="130" height="490" as="geometry" />
        </mxCell>
        <mxCell id="9NSYeFcuyXZWmgVy-g_J-22" value="" style="rounded=1;whiteSpace=wrap;html=1;fontColor=default;labelBackgroundColor=none;fillColor=none;dashed=1;" vertex="1" parent="1">
          <mxGeometry x="1120" y="140" width="160" height="460" as="geometry" />
        </mxCell>
        <mxCell id="9NSYeFcuyXZWmgVy-g_J-23" value="" style="rounded=1;whiteSpace=wrap;html=1;fontColor=default;labelBackgroundColor=none;fillColor=none;dashed=1;" vertex="1" parent="1">
          <mxGeometry x="920" y="110" width="160" height="490" as="geometry" />
        </mxCell>
        <mxCell id="9NSYeFcuyXZWmgVy-g_J-24" value="" style="endArrow=none;html=1;strokeWidth=2;rounded=0;" edge="1" parent="1">
          <mxGeometry width="50" height="50" relative="1" as="geometry">
            <mxPoint x="730" y="360" as="sourcePoint" />
            <mxPoint x="1310" y="360" as="targetPoint" />
          </mxGeometry>
        </mxCell>
        <mxCell id="9NSYeFcuyXZWmgVy-g_J-25" value="K8S Master" style="ellipse;whiteSpace=wrap;html=1;fillColor=#dae8fc;strokeColor=#6c8ebf;gradientColor=#7ea6e0;" vertex="1" parent="1">
          <mxGeometry x="760" y="150" width="110" height="60" as="geometry" />
        </mxCell>
        <mxCell id="9NSYeFcuyXZWmgVy-g_J-26" value="K8S Master" style="ellipse;whiteSpace=wrap;html=1;fillColor=#dae8fc;strokeColor=#6c8ebf;gradientColor=#7ea6e0;" vertex="1" parent="1">
          <mxGeometry x="760" y="240" width="110" height="60" as="geometry" />
        </mxCell>
        <mxCell id="9NSYeFcuyXZWmgVy-g_J-27" value="K8S Master" style="ellipse;whiteSpace=wrap;html=1;fillColor=#dae8fc;strokeColor=#6c8ebf;gradientColor=#7ea6e0;" vertex="1" parent="1">
          <mxGeometry x="760" y="470" width="110" height="60" as="geometry" />
        </mxCell>
        <mxCell id="9NSYeFcuyXZWmgVy-g_J-28" value="MongoDB&lt;span style=&quot;background-color: initial;&quot;&gt;&amp;nbsp;8&lt;/span&gt;" style="rounded=1;whiteSpace=wrap;html=1;fillColor=#d5e8d4;strokeColor=#82b366;gradientColor=#97d077;" vertex="1" parent="1">
          <mxGeometry x="940" y="430" width="120" height="40" as="geometry" />
        </mxCell>
        <mxCell id="9NSYeFcuyXZWmgVy-g_J-29" value="MongoDB&lt;span style=&quot;background-color: initial;&quot;&gt;&amp;nbsp;9&lt;/span&gt;" style="rounded=1;whiteSpace=wrap;html=1;fillColor=#d5e8d4;strokeColor=#82b366;gradientColor=#97d077;" vertex="1" parent="1">
          <mxGeometry x="940" y="485" width="120" height="40" as="geometry" />
        </mxCell>
        <mxCell id="9NSYeFcuyXZWmgVy-g_J-30" value="MongoDB&lt;span style=&quot;background-color: initial;&quot;&gt;&amp;nbsp;6&lt;/span&gt;" style="rounded=1;whiteSpace=wrap;html=1;fillColor=#d5e8d4;strokeColor=#82b366;gradientColor=#97d077;" vertex="1" parent="1">
          <mxGeometry x="940" y="160" width="120" height="40" as="geometry" />
        </mxCell>
        <mxCell id="9NSYeFcuyXZWmgVy-g_J-31" value="MongoDB&lt;span style=&quot;background-color: initial;&quot;&gt;&amp;nbsp;7&lt;/span&gt;" style="rounded=1;whiteSpace=wrap;html=1;fillColor=#d5e8d4;strokeColor=#82b366;gradientColor=#97d077;" vertex="1" parent="1">
          <mxGeometry x="940" y="240" width="120" height="40" as="geometry" />
        </mxCell>
        <mxCell id="9NSYeFcuyXZWmgVy-g_J-33" value="vManager" style="shape=hexagon;perimeter=hexagonPerimeter2;whiteSpace=wrap;html=1;fixedSize=1;fillColor=#e6d0de;strokeColor=#996185;gradientColor=#d5739d;" vertex="1" parent="1">
          <mxGeometry x="1140" y="160" width="120" height="40" as="geometry" />
        </mxCell>
        <mxCell id="9NSYeFcuyXZWmgVy-g_J-34" value="vManager" style="shape=hexagon;perimeter=hexagonPerimeter2;whiteSpace=wrap;html=1;fixedSize=1;fillColor=#e6d0de;strokeColor=#996185;gradientColor=#d5739d;" vertex="1" parent="1">
          <mxGeometry x="1140" y="460" width="120" height="40" as="geometry" />
        </mxCell>
        <mxCell id="9NSYeFcuyXZWmgVy-g_J-35" value="vManager" style="shape=hexagon;perimeter=hexagonPerimeter2;whiteSpace=wrap;html=1;fixedSize=1;fillColor=#e6d0de;strokeColor=#996185;gradientColor=#d5739d;" vertex="1" parent="1">
          <mxGeometry x="1140" y="540" width="120" height="40" as="geometry" />
        </mxCell>
        <mxCell id="9NSYeFcuyXZWmgVy-g_J-36" value="Mô hình site STANDBY" style="text;html=1;align=center;verticalAlign=middle;resizable=0;points=[];autosize=1;strokeColor=none;fillColor=none;fontFamily=Helvetica;fontSize=13;fontColor=default;labelBackgroundColor=default;fontStyle=1" vertex="1" parent="1">
          <mxGeometry x="940" y="40" width="160" height="30" as="geometry" />
        </mxCell>
        <mxCell id="9NSYeFcuyXZWmgVy-g_J-40" value="" style="endArrow=none;html=1;rounded=0;strokeColor=#e32b2b;strokeWidth=2;align=center;verticalAlign=middle;fontFamily=Helvetica;fontSize=11;fontColor=default;labelBackgroundColor=default;" edge="1" parent="1">
          <mxGeometry width="50" height="50" relative="1" as="geometry">
            <mxPoint x="680" y="660" as="sourcePoint" />
            <mxPoint x="680" y="20" as="targetPoint" />
          </mxGeometry>
        </mxCell>
      </root>
    </mxGraphModel>
  </diagram>
</mxfile>
